<?xml version="1.0" encoding="utf-8" standalone="no"?>
<!DOCTYPE svg PUBLIC "-//W3C//DTD SVG 1.1//EN"
  "http://www.w3.org/Graphics/SVG/1.1/DTD/svg11.dtd">
<svg height="576pt" version="1.1" viewBox="0 0 1152 576" width="1152pt" xmlns="http://www.w3.org/2000/svg" xmlns:xlink="http://www.w3.org/1999/xlink">
 <metadata>
  <rdf:RDF xmlns:cc="http://creativecommons.org/ns#" xmlns:dc="http://purl.org/dc/elements/1.1/" xmlns:rdf="http://www.w3.org/1999/02/22-rdf-syntax-ns#">
   <cc:Work>
    <dc:type rdf:resource="http://purl.org/dc/dcmitype/StillImage"/>
    <dc:date>2023-11-27T14:43:05.900391</dc:date>
    <dc:format>image/svg+xml</dc:format>
    <dc:creator>
     <cc:Agent>
      <dc:title>Matplotlib v3.4.3, https://matplotlib.org/</dc:title>
     </cc:Agent>
    </dc:creator>
   </cc:Work>
  </rdf:RDF>
 </metadata>
 <defs>
  <style type="text/css">*{stroke-linecap:butt;stroke-linejoin:round;}</style>
 </defs>
 <g id="figure_1">
  <g id="patch_1">
   <path d="M 0 576 
L 1152 576 
L 1152 0 
L 0 0 
z
" style="fill:none;"/>
  </g>
  <g id="axes_1">
   <g id="patch_2">
    <path clip-path="url(#p0a2b0f4f74)" d="M 346.909091 423.936 
C 379.196363 423.936 410.165578 409.91638 432.996127 384.9648 
C 455.826676 360.013219 468.654545 326.166864 468.654545 290.88 
C 468.654545 255.593136 455.826676 221.746781 432.996127 196.7952 
C 410.165578 171.84362 379.196363 157.824 346.909091 157.824 
C 314.621819 157.824 283.652603 171.84362 260.822054 196.7952 
C 237.991505 221.746781 225.163636 255.593136 225.163636 290.88 
C 225.163636 326.166864 237.991505 360.013219 260.822054 384.9648 
C 283.652603 409.91638 314.621819 423.936 346.909091 423.936 
z
" style="fill:#222222;stroke:#222222;stroke-linejoin:miter;"/>
   </g>
   <g id="patch_3">
    <path clip-path="url(#p0a2b0f4f74)" d="M 428.987542 225.706371 
L 362.58468 238.153427 
L 315.557912 185.426853 
L 305.869865 258.293186 
L 245.454545 290.88 
L 305.869865 323.466814 
L 315.557912 396.333147 
L 362.58468 343.606573 
L 428.987542 356.053629 
L 397.636364 290.88 
z
" style="fill:#ffd700;stroke:#ffd700;stroke-linejoin:miter;"/>
   </g>
   <g id="patch_4">
    <path clip-path="url(#p0a2b0f4f74)" d="M 396.156162 251.775823 
L 356.314445 259.244056 
L 328.098384 227.608112 
L 322.285555 271.327911 
L 286.036364 290.88 
L 322.285555 310.432089 
L 328.098384 354.151888 
L 356.314445 322.515944 
L 396.156162 329.984177 
L 377.345455 290.88 
z
" style="fill:#222222;stroke:#222222;stroke-linejoin:miter;"/>
   </g>
   <g id="patch_5">
    <path clip-path="url(#p0a2b0f4f74)" d="M 346.909091 313.056 
C 352.290303 313.056 357.451839 310.719397 361.25693 306.5608 
C 365.062022 302.402203 367.2 296.761144 367.2 290.88 
C 367.2 284.998856 365.062022 279.357797 361.25693 275.1992 
C 357.451839 271.040603 352.290303 268.704 346.909091 268.704 
C 341.527879 268.704 336.366343 271.040603 332.561251 275.1992 
C 328.75616 279.357797 326.618182 284.998856 326.618182 290.88 
C 326.618182 296.761144 328.75616 302.402203 332.561251 306.5608 
C 336.366343 310.719397 341.527879 313.056 346.909091 313.056 
z
" style="fill:#ffffff;opacity:0.1;stroke:#ffffff;stroke-linejoin:miter;"/>
   </g>
   <g id="patch_6">
    <path clip-path="url(#p0a2b0f4f74)" d="M 357.054545 329.688 
C 369.162272 329.688 380.775728 324.430643 389.337184 315.0738 
C 397.89864 305.716957 402.709091 293.024574 402.709091 279.792 
C 402.709091 266.559426 397.89864 253.867043 389.337184 244.5102 
C 380.775728 235.153357 369.162272 229.896 357.054545 229.896 
C 344.946818 229.896 333.333363 235.153357 324.771907 244.5102 
C 316.210451 253.867043 311.4 266.559426 311.4 279.792 
C 311.4 293.024574 316.210451 305.716957 324.771907 315.0738 
C 333.333363 324.430643 344.946818 329.688 357.054545 329.688 
z
" style="fill:#ffffff;opacity:0.1;stroke:#ffffff;stroke-linejoin:miter;"/>
   </g>
   <g id="patch_7">
    <path clip-path="url(#p0a2b0f4f74)" d="M 367.2 346.32 
C 386.034242 346.32 404.099618 338.141889 417.417438 323.5868 
C 430.735258 309.031711 438.218182 289.288004 438.218182 268.704 
C 438.218182 248.119996 430.735258 228.376289 417.417438 213.8212 
C 404.099618 199.266111 386.034242 191.088 367.2 191.088 
C 348.365758 191.088 330.300382 199.266111 316.982562 213.8212 
C 303.664742 228.376289 296.181818 248.119996 296.181818 268.704 
C 296.181818 289.288004 303.664742 309.031711 316.982562 323.5868 
C 330.300382 338.141889 348.365758 346.32 367.2 346.32 
z
" style="fill:#ffffff;opacity:0.1;stroke:#ffffff;stroke-linejoin:miter;"/>
   </g>
   <g id="patch_8">
    <path clip-path="url(#p0a2b0f4f74)" d="M 377.345455 362.952 
C 402.906212 362.952 427.423507 351.853135 445.497692 332.0998 
C 463.571876 312.346465 473.727273 285.551434 473.727273 257.616 
C 473.727273 229.680566 463.571876 202.885535 445.497692 183.1322 
C 427.423507 163.378865 402.906212 152.28 377.345455 152.28 
C 351.784698 152.28 327.267402 163.378865 309.193217 183.1322 
C 291.119033 202.885535 280.963636 229.680566 280.963636 257.616 
C 280.963636 285.551434 291.119033 312.346465 309.193217 332.0998 
C 327.267402 351.853135 351.784698 362.952 377.345455 362.952 
z
" style="fill:#ffffff;opacity:0.1;stroke:#ffffff;stroke-linejoin:miter;"/>
   </g>
   <g id="patch_9">
    <path clip-path="url(#p0a2b0f4f74)" d="M 387.490909 379.584 
C 419.778181 379.584 450.747397 365.56438 473.577946 340.6128 
C 496.408495 315.661219 509.236364 281.814864 509.236364 246.528 
C 509.236364 211.241136 496.408495 177.394781 473.577946 152.4432 
C 450.747397 127.49162 419.778181 113.472 387.490909 113.472 
C 355.203637 113.472 324.234422 127.49162 301.403873 152.4432 
C 278.573324 177.394781 265.745455 211.241136 265.745455 246.528 
C 265.745455 281.814864 278.573324 315.661219 301.403873 340.6128 
C 324.234422 365.56438 355.203637 379.584 387.490909 379.584 
z
" style="fill:#ffffff;opacity:0.1;stroke:#ffffff;stroke-linejoin:miter;"/>
   </g>
   <g id="text_1">
    <!-- AI Coder -->
    <g style="fill:#ffffff;" transform="translate(289.282841 452.7345)scale(0.24 -0.24)">
     <defs>
      <path d="M 3419 850 
L 1538 850 
L 1241 0 
L 31 0 
L 1759 4666 
L 3194 4666 
L 4922 0 
L 3713 0 
L 3419 850 
z
M 1838 1716 
L 3116 1716 
L 2478 3572 
L 1838 1716 
z
" id="DejaVuSans-Bold-41" transform="scale(0.015625)"/>
      <path d="M 588 4666 
L 1791 4666 
L 1791 0 
L 588 0 
L 588 4666 
z
" id="DejaVuSans-Bold-49" transform="scale(0.015625)"/>
      <path id="DejaVuSans-Bold-20" transform="scale(0.015625)"/>
      <path d="M 4288 256 
Q 3956 84 3597 -3 
Q 3238 -91 2847 -91 
Q 1681 -91 1000 561 
Q 319 1213 319 2328 
Q 319 3447 1000 4098 
Q 1681 4750 2847 4750 
Q 3238 4750 3597 4662 
Q 3956 4575 4288 4403 
L 4288 3438 
Q 3953 3666 3628 3772 
Q 3303 3878 2944 3878 
Q 2300 3878 1931 3465 
Q 1563 3053 1563 2328 
Q 1563 1606 1931 1193 
Q 2300 781 2944 781 
Q 3303 781 3628 887 
Q 3953 994 4288 1222 
L 4288 256 
z
" id="DejaVuSans-Bold-43" transform="scale(0.015625)"/>
      <path d="M 2203 2784 
Q 1831 2784 1636 2517 
Q 1441 2250 1441 1747 
Q 1441 1244 1636 976 
Q 1831 709 2203 709 
Q 2569 709 2762 976 
Q 2956 1244 2956 1747 
Q 2956 2250 2762 2517 
Q 2569 2784 2203 2784 
z
M 2203 3584 
Q 3106 3584 3614 3096 
Q 4122 2609 4122 1747 
Q 4122 884 3614 396 
Q 3106 -91 2203 -91 
Q 1297 -91 786 396 
Q 275 884 275 1747 
Q 275 2609 786 3096 
Q 1297 3584 2203 3584 
z
" id="DejaVuSans-Bold-6f" transform="scale(0.015625)"/>
      <path d="M 2919 2988 
L 2919 4863 
L 4044 4863 
L 4044 0 
L 2919 0 
L 2919 506 
Q 2688 197 2409 53 
Q 2131 -91 1766 -91 
Q 1119 -91 703 423 
Q 288 938 288 1747 
Q 288 2556 703 3070 
Q 1119 3584 1766 3584 
Q 2128 3584 2408 3439 
Q 2688 3294 2919 2988 
z
M 2181 722 
Q 2541 722 2730 984 
Q 2919 1247 2919 1747 
Q 2919 2247 2730 2509 
Q 2541 2772 2181 2772 
Q 1825 2772 1636 2509 
Q 1447 2247 1447 1747 
Q 1447 1247 1636 984 
Q 1825 722 2181 722 
z
" id="DejaVuSans-Bold-64" transform="scale(0.015625)"/>
      <path d="M 4031 1759 
L 4031 1441 
L 1416 1441 
Q 1456 1047 1700 850 
Q 1944 653 2381 653 
Q 2734 653 3104 758 
Q 3475 863 3866 1075 
L 3866 213 
Q 3469 63 3072 -14 
Q 2675 -91 2278 -91 
Q 1328 -91 801 392 
Q 275 875 275 1747 
Q 275 2603 792 3093 
Q 1309 3584 2216 3584 
Q 3041 3584 3536 3087 
Q 4031 2591 4031 1759 
z
M 2881 2131 
Q 2881 2450 2695 2645 
Q 2509 2841 2209 2841 
Q 1884 2841 1681 2658 
Q 1478 2475 1428 2131 
L 2881 2131 
z
" id="DejaVuSans-Bold-65" transform="scale(0.015625)"/>
      <path d="M 3138 2547 
Q 2991 2616 2845 2648 
Q 2700 2681 2553 2681 
Q 2122 2681 1889 2404 
Q 1656 2128 1656 1613 
L 1656 0 
L 538 0 
L 538 3500 
L 1656 3500 
L 1656 2925 
Q 1872 3269 2151 3426 
Q 2431 3584 2822 3584 
Q 2878 3584 2943 3579 
Q 3009 3575 3134 3559 
L 3138 2547 
z
" id="DejaVuSans-Bold-72" transform="scale(0.015625)"/>
     </defs>
     <use xlink:href="#DejaVuSans-Bold-41"/>
     <use x="77.392578" xlink:href="#DejaVuSans-Bold-49"/>
     <use x="114.599609" xlink:href="#DejaVuSans-Bold-20"/>
     <use x="149.414062" xlink:href="#DejaVuSans-Bold-43"/>
     <use x="222.802734" xlink:href="#DejaVuSans-Bold-6f"/>
     <use x="291.503906" xlink:href="#DejaVuSans-Bold-64"/>
     <use x="363.085938" xlink:href="#DejaVuSans-Bold-65"/>
     <use x="430.908203" xlink:href="#DejaVuSans-Bold-72"/>
    </g>
   </g>
  </g>
  <g id="axes_2">
   <g id="patch_10">
    <path clip-path="url(#p340f024850)" d="M 833.890909 423.936 
C 866.178181 423.936 897.147397 409.91638 919.977946 384.9648 
C 942.808495 360.013219 955.636364 326.166864 955.636364 290.88 
C 955.636364 255.593136 942.808495 221.746781 919.977946 196.7952 
C 897.147397 171.84362 866.178181 157.824 833.890909 157.824 
C 801.603637 157.824 770.634422 171.84362 747.803873 196.7952 
C 724.973324 221.746781 712.145455 255.593136 712.145455 290.88 
C 712.145455 326.166864 724.973324 360.013219 747.803873 384.9648 
C 770.634422 409.91638 801.603637 423.936 833.890909 423.936 
z
" style="fill:#ffffff;stroke:#ffffff;stroke-linejoin:miter;"/>
   </g>
   <g id="patch_11">
    <path clip-path="url(#p340f024850)" d="M 915.969361 225.706371 
L 849.566498 238.153427 
L 802.53973 185.426853 
L 792.851683 258.293186 
L 732.436364 290.88 
L 792.851683 323.466814 
L 802.53973 396.333147 
L 849.566498 343.606573 
L 915.969361 356.053629 
L 884.618182 290.88 
z
" style="fill:#ff4500;stroke:#ff4500;stroke-linejoin:miter;"/>
   </g>
   <g id="patch_12">
    <path clip-path="url(#p340f024850)" d="M 883.13798 251.775823 
L 843.296263 259.244056 
L 815.080202 227.608112 
L 809.267374 271.327911 
L 773.018182 290.88 
L 809.267374 310.432089 
L 815.080202 354.151888 
L 843.296263 322.515944 
L 883.13798 329.984177 
L 864.327273 290.88 
z
" style="fill:#ffffff;stroke:#ffffff;stroke-linejoin:miter;"/>
   </g>
   <g id="patch_13">
    <path clip-path="url(#p340f024850)" d="M 833.890909 313.056 
C 839.272121 313.056 844.433657 310.719397 848.238749 306.5608 
C 852.04384 302.402203 854.181818 296.761144 854.181818 290.88 
C 854.181818 284.998856 852.04384 279.357797 848.238749 275.1992 
C 844.433657 271.040603 839.272121 268.704 833.890909 268.704 
C 828.509697 268.704 823.348161 271.040603 819.54307 275.1992 
C 815.737978 279.357797 813.6 284.998856 813.6 290.88 
C 813.6 296.761144 815.737978 302.402203 819.54307 306.5608 
C 823.348161 310.719397 828.509697 313.056 833.890909 313.056 
z
" style="fill:#ffffff;opacity:0.2;stroke:#ffffff;stroke-linejoin:miter;"/>
   </g>
   <g id="patch_14">
    <path clip-path="url(#p340f024850)" d="M 844.036364 329.688 
C 856.144091 329.688 867.757546 324.430643 876.319002 315.0738 
C 884.880458 305.716957 889.690909 293.024574 889.690909 279.792 
C 889.690909 266.559426 884.880458 253.867043 876.319002 244.5102 
C 867.757546 235.153357 856.144091 229.896 844.036364 229.896 
C 831.928637 229.896 820.315181 235.153357 811.753725 244.5102 
C 803.192269 253.867043 798.381818 266.559426 798.381818 279.792 
C 798.381818 293.024574 803.192269 305.716957 811.753725 315.0738 
C 820.315181 324.430643 831.928637 329.688 844.036364 329.688 
z
" style="fill:#ffffff;opacity:0.2;stroke:#ffffff;stroke-linejoin:miter;"/>
   </g>
   <g id="patch_15">
    <path clip-path="url(#p340f024850)" d="M 854.181818 346.32 
C 873.01606 346.32 891.081436 338.141889 904.399256 323.5868 
C 917.717076 309.031711 925.2 289.288004 925.2 268.704 
C 925.2 248.119996 917.717076 228.376289 904.399256 213.8212 
C 891.081436 199.266111 873.01606 191.088 854.181818 191.088 
C 835.347576 191.088 817.2822 199.266111 803.96438 213.8212 
C 790.64656 228.376289 783.163636 248.119996 783.163636 268.704 
C 783.163636 289.288004 790.64656 309.031711 803.96438 323.5868 
C 817.2822 338.141889 835.347576 346.32 854.181818 346.32 
z
" style="fill:#ffffff;opacity:0.2;stroke:#ffffff;stroke-linejoin:miter;"/>
   </g>
   <g id="patch_16">
    <path clip-path="url(#p340f024850)" d="M 864.327273 362.952 
C 889.88803 362.952 914.405325 351.853135 932.47951 332.0998 
C 950.553695 312.346465 960.709091 285.551434 960.709091 257.616 
C 960.709091 229.680566 950.553695 202.885535 932.47951 183.1322 
C 914.405325 163.378865 889.88803 152.28 864.327273 152.28 
C 838.766516 152.28 814.24922 163.378865 796.175036 183.1322 
C 778.100851 202.885535 767.945455 229.680566 767.945455 257.616 
C 767.945455 285.551434 778.100851 312.346465 796.175036 332.0998 
C 814.24922 351.853135 838.766516 362.952 864.327273 362.952 
z
" style="fill:#ffffff;opacity:0.2;stroke:#ffffff;stroke-linejoin:miter;"/>
   </g>
   <g id="patch_17">
    <path clip-path="url(#p340f024850)" d="M 874.472727 379.584 
C 906.759999 379.584 937.729215 365.56438 960.559764 340.6128 
C 983.390313 315.661219 996.218182 281.814864 996.218182 246.528 
C 996.218182 211.241136 983.390313 177.394781 960.559764 152.4432 
C 937.729215 127.49162 906.759999 113.472 874.472727 113.472 
C 842.185455 113.472 811.21624 127.49162 788.385691 152.4432 
C 765.555142 177.394781 752.727273 211.241136 752.727273 246.528 
C 752.727273 281.814864 765.555142 315.661219 788.385691 340.6128 
C 811.21624 365.56438 842.185455 379.584 874.472727 379.584 
z
" style="fill:#ffffff;opacity:0.2;stroke:#ffffff;stroke-linejoin:miter;"/>
   </g>
   <g id="text_2">
    <!-- AI Coder -->
    <g transform="translate(785.869034 451.63075)scale(0.2 -0.2)">
     <use xlink:href="#DejaVuSans-Bold-41"/>
     <use x="77.392578" xlink:href="#DejaVuSans-Bold-49"/>
     <use x="114.599609" xlink:href="#DejaVuSans-Bold-20"/>
     <use x="149.414062" xlink:href="#DejaVuSans-Bold-43"/>
     <use x="222.802734" xlink:href="#DejaVuSans-Bold-6f"/>
     <use x="291.503906" xlink:href="#DejaVuSans-Bold-64"/>
     <use x="363.085938" xlink:href="#DejaVuSans-Bold-65"/>
     <use x="430.908203" xlink:href="#DejaVuSans-Bold-72"/>
    </g>
   </g>
  </g>
 </g>
 <defs>
  <clipPath id="p0a2b0f4f74">
   <rect height="443.52" width="405.818182" x="144" y="69.12"/>
  </clipPath>
  <clipPath id="p340f024850">
   <rect height="443.52" width="405.818182" x="630.981818" y="69.12"/>
  </clipPath>
 </defs>
</svg>
