<?xml version="1.0" encoding="UTF-8"?>
<svg width="141px" height="13px" viewBox="0 0 141 13" version="1.1" xmlns="http://www.w3.org/2000/svg" xmlns:xlink="http://www.w3.org/1999/xlink">
    <title>ai_jetbrains_review_icon_loading1</title>
    <g stroke="none" stroke-width="1" fill="none" fill-rule="evenodd">
        <g transform="translate(-1669.000000, -303.000000)" fill="#FFFFFF" fill-rule="nonzero">
            <g transform="translate(1669.002579, 303.000000)">
                <path d="M8.00148566,0 C4.68777716,0 2.00148566,2.6862915 2.00148566,6 C2.00148566,9.3137085 4.68777716,12 8.00148566,12 C11.3151942,12 14.0014857,9.3137085 14.0014857,6 C14.0014857,2.6862915 11.3151942,0 8.00148566,0 Z M8.00148566,1.2 C10.6524525,1.2 12.8014857,3.3490332 12.8014857,6 C12.8014857,8.6509668 10.6524525,10.8 8.00148566,10.8 C5.35051886,10.8 3.20148566,8.6509668 3.20148566,6 C3.20148566,3.3490332 5.35051886,1.2 8.00148566,1.2 Z" fill-opacity="0.2"></path>
                <path d="M8.03671168,0 C11.2442745,0 13.8605,2.53181597 13.9959748,5.70603447 L14.0014857,5.96477399 L12.8085309,5.96477399 C12.8085309,3.40923172 10.7996326,1.32289277 8.27487358,1.19879468 L8.03671168,1.1929548 L8.03671168,0 Z"></path>
                <g transform="translate(100.452008, 0.027871)">
                    <path d="M5.555,7.33017312 L5.555,6.36217312 L2.27373675e-13,6.36217312 L2.27373675e-13,7.33017312 L5.555,7.33017312 Z M14.828,9.23317312 L14.828,6.24117312 L16.489,6.24117312 L16.489,5.25117312 L14.828,5.25117312 L14.828,3.30417312 L16.137,3.30417312 L16.137,2.32517312 L14.828,2.32517312 L14.828,0.67517312 L13.816,0.67517312 L13.816,2.32517312 L12.32,2.32517312 L12.32,0.66417312 L11.319,0.66417312 L11.319,2.32517312 L10.109,2.32517312 L10.109,3.30417312 L11.319,3.30417312 L11.319,4.08517312 C11.319,4.49217312 11.297,4.87717312 11.253,5.25117312 L9.724,5.25117312 L9.724,6.24117312 L11.055,6.24117312 C10.813,7.12117312 10.384,7.78117312 9.768,8.22117312 L10.395,9.05717312 C11.209,8.44117312 11.759,7.50617312 12.067,6.24117312 L13.816,6.24117312 L13.816,9.23317312 L14.828,9.23317312 Z M8.712,3.24917312 L9.46,2.50117312 C8.954,1.92917312 8.338,1.35717312 7.612,0.78517312 L6.886,1.47817312 C7.678,2.11617312 8.283,2.69917312 8.712,3.24917312 Z M13.816,5.25117312 L12.243,5.25117312 C12.287,4.81117312 12.32,4.34917312 12.32,3.84317312 L12.32,3.30417312 L13.816,3.30417312 L13.816,5.25117312 Z M7.513,10.8721731 C8.074,9.88217312 8.47,9.38717312 8.69,9.38717312 C8.822,9.38717312 8.954,9.47517312 9.097,9.66217312 C9.427,10.0361731 9.801,10.3001731 10.241,10.4321731 C10.692,10.5421731 11.264,10.6081731 11.968,10.6191731 C12.661,10.6301731 13.31,10.6411731 13.904,10.6411731 L16.423,10.6411731 L16.676,9.60717312 C16.379,9.62917312 15.95,9.65117312 15.4,9.66217312 C14.839,9.67317312 14.289,9.68417312 13.761,9.68417312 C12.914,9.68417312 12.188,9.67317312 11.572,9.66217312 C10.934,9.64017312 10.461,9.54117312 10.142,9.38717312 C9.867,9.24417312 9.603,9.02417312 9.361,8.72717312 C9.306,8.66117312 9.251,8.61717312 9.207,8.57317312 L9.207,4.40417312 L6.743,4.40417312 L6.743,5.37217312 L8.228,5.37217312 L8.228,8.48517312 C7.788,8.70517312 7.293,9.26617312 6.743,10.1571731 L7.513,10.8721731 Z M17.82,4.44817312 C19.228,3.48017312 20.218,2.40217312 20.812,1.19217312 L19.855,0.75217312 C19.349,1.76417312 18.568,2.64417312 17.501,3.40317312 L17.82,4.44817312 Z M27.093,2.31417312 L27.093,1.29117312 L21.725,1.29117312 L21.725,2.31417312 L27.093,2.31417312 Z M20.196,10.8281731 L20.196,5.39417312 C20.647,4.86617312 21.021,4.30517312 21.318,3.71117312 L20.372,3.27117312 C19.778,4.45917312 18.843,5.49317312 17.589,6.37317312 L17.897,7.40717312 C18.359,7.08817312 18.777,6.75817312 19.173,6.41717312 L19.173,10.8281731 L20.196,10.8281731 Z M24.673,10.7841731 C25.454,10.7841731 25.85,10.4321731 25.85,9.72817312 L25.85,5.06417312 L27.566,5.06417312 L27.566,4.04117312 L21.45,4.04117312 L21.45,5.06417312 L24.794,5.06417312 L24.794,9.47517312 C24.794,9.70617312 24.629,9.82717312 24.31,9.82717312 C23.848,9.82717312 23.353,9.80517312 22.847,9.76117312 L23.078,10.7841731 L24.673,10.7841731 Z M34.144,10.9051731 L34.144,7.22017312 L37.015,7.22017312 L37.015,7.84717312 L38.06,7.84717312 L38.06,2.53417312 L34.144,2.53417312 L34.144,0.63117312 L33.066,0.63117312 L33.066,2.53417312 L29.161,2.53417312 L29.161,7.84717312 L30.206,7.84717312 L30.206,7.22017312 L33.066,7.22017312 L33.066,10.9051731 L34.144,10.9051731 Z M33.066,6.19717312 L30.206,6.19717312 L30.206,3.55717312 L33.066,3.55717312 L33.066,6.19717312 Z M37.015,6.19717312 L34.144,6.19717312 L34.144,3.55717312 L37.015,3.55717312 L37.015,6.19717312 Z"></path>
                </g>
                <g transform="translate(17.331051, 0.035226)">
                    <path d="M6.41345394,10.9025247 L6.41345394,6.22752471 L10.7254539,6.22752471 L10.7254539,5.21552471 L6.41345394,5.21552471 L6.41345394,2.55352471 C7.75545394,2.39952471 8.94345394,2.17952471 9.96645394,1.87152471 L9.43845394,0.958524711 C7.32645394,1.51952471 4.71945394,1.80552471 1.63945394,1.80552471 L1.96945394,2.77352471 C3.17945394,2.77352471 4.31245394,2.72952471 5.35745394,2.65252471 L5.35745394,5.21552471 L0.935453941,5.21552471 L0.935453941,6.22752471 L5.35745394,6.22752471 L5.35745394,10.9025247 L6.41345394,10.9025247 Z M20.8014539,5.87552471 L21.6704539,5.27052471 C21.2744539,4.58852471 20.6914539,3.79652471 19.9324539,2.89452471 L19.0854539,3.41152471 C19.3054539,3.68652471 19.5144539,3.96152471 19.7234539,4.23652471 C18.6234539,4.35752471 17.5124539,4.45652471 16.4124539,4.53352471 C16.7644539,4.11552471 17.1494539,3.52152471 17.5894539,2.75152471 L21.5934539,2.75152471 L21.5934539,1.81652471 L18.7774539,1.81652471 C18.6344539,1.38752471 18.4914539,1.00252471 18.3484539,0.650524711 L17.2814539,0.826524711 C17.4354539,1.13452471 17.5784539,1.46452471 17.7104539,1.81652471 L14.7734539,1.81652471 L14.7734539,2.75152471 L16.5114539,2.75152471 C15.9174539,3.71952471 15.4334539,4.32452471 15.0484539,4.55552471 C15.0044539,4.57752471 14.9274539,4.61052471 14.8394539,4.64352471 L15.0704539,5.52352471 C16.9514539,5.41352471 18.7004539,5.25952471 20.3064539,5.07252471 C20.4824539,5.33652471 20.6474539,5.61152471 20.8014539,5.87552471 Z M13.8164539,3.03752471 L14.5644539,2.28952471 C14.1024539,1.81652471 13.5304539,1.34352471 12.8704539,0.881524711 L12.1114539,1.60752471 C12.8374539,2.11352471 13.4094539,2.59752471 13.8164539,3.03752471 Z M13.5854539,5.85352471 L14.3334539,5.10552471 C13.8714539,4.57752471 13.2884539,4.03852471 12.6064539,3.51052471 L11.8584539,4.23652471 C12.6064539,4.80852471 13.1784539,5.34752471 13.5854539,5.85352471 Z M18.2824539,10.7155247 L18.2824539,5.89752471 L17.2264539,5.89752471 L17.2264539,10.7155247 L18.2824539,10.7155247 Z M14.6854539,10.9245247 C15.3014539,10.3965247 15.7524539,9.79152471 16.0164539,9.08752471 C16.2584539,8.40552471 16.4014539,7.34952471 16.4454539,5.89752471 L15.4334539,5.89752471 C15.3894539,7.16252471 15.2794539,8.06452471 15.0814539,8.61452471 C14.8724539,9.18652471 14.5204539,9.68152471 14.0144539,10.0995247 L14.6854539,10.9245247 Z M20.8234539,10.8255247 C21.3074539,10.7925247 21.6154539,10.6715247 21.7584539,10.4515247 C21.9014539,10.2205247 21.9784539,9.58252471 21.9784539,8.54852471 L21.0654539,8.20752471 C21.0654539,8.73552471 21.0434539,9.15352471 21.0214539,9.43952471 C20.9994539,9.70352471 20.9224539,9.85752471 20.7794539,9.87952471 L20.3834539,9.87952471 C20.2734539,9.85752471 20.2184539,9.78052471 20.2184539,9.65952471 L20.2184539,5.89752471 L19.2284539,5.89752471 L19.2284539,9.85752471 C19.2284539,10.4955247 19.5914539,10.8255247 20.3394539,10.8255247 L20.8234539,10.8255247 Z M13.0134539,10.7925247 C13.5304539,9.56052471 14.0034539,8.24052471 14.4214539,6.83252471 L13.4974539,6.48052471 C13.0904539,7.80052471 12.6064539,9.09852471 12.0564539,10.3635247 L13.0134539,10.7925247 Z M25.1134539,10.9575247 L25.1134539,3.52152471 C25.5314539,2.79552471 25.8834539,2.01452471 26.1584539,1.18952471 L25.1794539,0.727524711 C24.6514539,2.42152471 23.8154539,3.90652471 22.6714539,5.18252471 L23.0014539,6.27152471 C23.3754539,5.88652471 23.7274539,5.49052471 24.0574539,5.08352471 L24.0574539,10.9575247 L25.1134539,10.9575247 Z M31.4164539,10.9025247 C31.7574539,10.8915247 32.0324539,10.7155247 32.2524539,10.3855247 C32.4944539,9.94552471 32.7034539,9.27452471 32.8574539,8.37252471 L31.9444539,7.84452471 C31.8124539,9.16452471 31.6144539,9.82452471 31.3614539,9.84652471 C31.0094539,9.82452471 30.6244539,9.52752471 30.2284539,8.95552471 C29.7994539,8.35052471 29.4584539,7.47052471 29.2054539,6.32652471 C29.1174539,5.88652471 29.0404539,5.35852471 28.9744539,4.76452471 L32.5274539,4.29152471 L32.3624539,3.30152471 L28.8974539,3.76352471 C28.8314539,2.88352471 28.7984539,1.88252471 28.7984539,0.760524711 L27.7424539,0.760524711 C27.7534539,1.92652471 27.7974539,2.98252471 27.8634539,3.90652471 L25.4984539,4.22552471 L25.6634539,5.21552471 L27.9514539,4.90752471 C28.0284539,5.66652471 28.1384539,6.30452471 28.2704539,6.82152471 C28.5894539,8.06452471 29.0734539,9.07652471 29.7114539,9.84652471 C30.2944539,10.5505247 30.8664539,10.9025247 31.4164539,10.9025247 Z M30.9324539,3.14752471 L31.6474539,2.44352471 C31.1854539,1.89352471 30.6354539,1.35452471 29.9754539,0.804524711 L29.3044539,1.45352471 C30.0084539,2.05852471 30.5474539,2.61952471 30.9324539,3.14752471 Z M41.2174539,10.8805247 C42.2294539,10.8805247 42.9004539,10.6715247 43.2194539,10.2535247 C43.5274539,9.83552471 43.6924539,8.25152471 43.6924539,5.50152471 L42.5704539,5.50152471 L43.1534539,1.15652471 L38.2474539,1.15652471 L38.2474539,2.14652471 L42.0094539,2.14652471 L41.5144539,5.50152471 L39.4134539,5.50152471 L39.8754539,2.86152471 L38.8524539,2.79552471 L38.2584539,6.48052471 L42.7024539,6.48052471 C42.7024539,8.09752471 42.6144539,9.07652471 42.4384539,9.41752471 C42.2844539,9.74752471 41.7894539,9.91252471 40.9644539,9.91252471 C40.7774539,9.91252471 40.4474539,9.87952471 39.9634539,9.82452471 L40.2494539,10.8365247 C40.5794539,10.8585247 40.9094539,10.8805247 41.2174539,10.8805247 Z M35.6954539,10.5725247 L35.6954539,9.82452471 L36.6414539,9.82452471 L36.6414539,10.3635247 L37.6094539,10.3635247 L37.6094539,4.56652471 L35.5964539,4.56652471 C35.8494539,3.87352471 36.0474539,3.12552471 36.1904539,2.32252471 L37.8074539,2.32252471 L37.8074539,1.31052471 L33.9904539,1.31052471 L33.9904539,2.32252471 L35.2004539,2.32252471 C34.9364539,3.84052471 34.4304539,5.20452471 33.6714539,6.41452471 L34.1884539,7.25052471 C34.3754539,6.98652471 34.5514539,6.71152471 34.7274539,6.42552471 L34.7274539,10.5725247 L35.6954539,10.5725247 Z M36.6414539,8.86752471 L35.6954539,8.86752471 L35.6954539,5.51252471 L36.6414539,5.51252471 L36.6414539,8.86752471 Z M42.0974539,8.62552471 L42.0974539,7.63552471 L38.0054539,7.63552471 L38.0054539,8.62552471 L42.0974539,8.62552471 Z M46.2994539,9.80252471 L46.2994539,6.55752471 L48.4224539,6.55752471 C48.8734539,6.55752471 49.2144539,6.64552471 49.4564539,6.84352471 C49.6874539,7.04152471 49.8304539,7.34952471 49.8744539,7.78952471 L49.9734539,8.76852471 C50.0174539,9.20852471 50.1274539,9.56052471 50.3144539,9.80252471 L51.6124539,9.80252471 C51.3484539,9.51652471 51.1944539,9.13152471 51.1504539,8.64752471 L51.0184539,7.39352471 C50.9304539,6.62352471 50.5454539,6.16152471 49.8414539,6.00752471 L49.8414539,5.98552471 C50.2704539,5.87552471 50.6114539,5.64452471 50.8644539,5.29252471 C51.0844539,4.97352471 51.1944539,4.61052471 51.1944539,4.19252471 C51.1944539,3.44452471 50.9524539,2.88352471 50.4684539,2.48752471 C50.0064539,2.12452471 49.3684539,1.94852471 48.5764539,1.94852471 L45.1004539,1.94852471 L45.1004539,9.80252471 L46.2994539,9.80252471 Z M48.4224539,5.53452471 L46.2994539,5.53452471 L46.2994539,2.97152471 L48.4114539,2.97152471 C48.9614539,2.97152471 49.3574539,3.07052471 49.6214539,3.27952471 C49.8634539,3.47752471 49.9954539,3.79652471 49.9954539,4.23652471 C49.9954539,4.65452471 49.8634539,4.97352471 49.6104539,5.19352471 C49.3464539,5.41352471 48.9504539,5.53452471 48.4224539,5.53452471 Z M55.0554539,9.95652471 C55.8144539,9.95652471 56.4414539,9.73652471 56.9364539,9.30752471 C57.3324539,8.95552471 57.5854539,8.50452471 57.7174539,7.97652471 L56.5514539,7.97652471 C56.3974539,8.30652471 56.2324539,8.55952471 56.0344539,8.71352471 C55.7814539,8.90052471 55.4514539,8.99952471 55.0444539,8.99952471 C54.5824539,8.99952471 54.2194539,8.84552471 53.9554539,8.55952471 C53.6914539,8.26252471 53.5484539,7.83352471 53.5044539,7.28352471 L57.8164539,7.28352471 C57.8054539,6.27152471 57.5744539,5.47952471 57.1344539,4.90752471 C56.6504539,4.26952471 55.9354539,3.96152471 55.0114539,3.96152471 C54.1754539,3.96152471 53.5044539,4.24752471 53.0204539,4.83052471 C52.5144539,5.40252471 52.2724539,6.10652471 52.2724539,6.95352471 C52.2724539,7.88852471 52.5364539,8.62552471 53.0644539,9.17552471 C53.5484539,9.69252471 54.2194539,9.95652471 55.0554539,9.95652471 Z M56.5954539,6.40352471 L53.5264539,6.40352471 C53.5924539,5.91952471 53.7574539,5.55652471 53.9994539,5.30352471 C54.2634539,5.03952471 54.6044539,4.91852471 55.0444539,4.91852471 C55.9684539,4.91852471 56.4854539,5.41352471 56.5954539,6.40352471 Z M61.4794539,9.80252471 L63.5914539,4.11552471 L62.3264539,4.11552471 L60.8964539,8.35052471 L59.4664539,4.11552471 L58.2014539,4.11552471 L60.3134539,9.80252471 L61.4794539,9.80252471 Z M65.1314539,3.41152471 C65.3514539,3.41152471 65.5494539,3.33452471 65.7034539,3.19152471 C65.8574539,3.03752471 65.9454539,2.85052471 65.9454539,2.61952471 C65.9454539,2.38852471 65.8684539,2.20152471 65.7144539,2.05852471 C65.5604539,1.90452471 65.3624539,1.83852471 65.1314539,1.83852471 C64.9004539,1.83852471 64.7134539,1.90452471 64.5594539,2.05852471 C64.4054539,2.20152471 64.3284539,2.38852471 64.3284539,2.61952471 C64.3284539,2.83952471 64.4054539,3.03752471 64.5594539,3.19152471 C64.7134539,3.33452471 64.9004539,3.41152471 65.1314539,3.41152471 Z M65.7144539,9.80252471 L65.7144539,4.11552471 L64.5484539,4.11552471 L64.5484539,9.80252471 L65.7144539,9.80252471 Z M69.7404539,9.95652471 C70.4994539,9.95652471 71.1264539,9.73652471 71.6214539,9.30752471 C72.0174539,8.95552471 72.2704539,8.50452471 72.4024539,7.97652471 L71.2364539,7.97652471 C71.0824539,8.30652471 70.9174539,8.55952471 70.7194539,8.71352471 C70.4664539,8.90052471 70.1364539,8.99952471 69.7294539,8.99952471 C69.2674539,8.99952471 68.9044539,8.84552471 68.6404539,8.55952471 C68.3764539,8.26252471 68.2334539,7.83352471 68.1894539,7.28352471 L72.5014539,7.28352471 C72.4904539,6.27152471 72.2594539,5.47952471 71.8194539,4.90752471 C71.3354539,4.26952471 70.6204539,3.96152471 69.6964539,3.96152471 C68.8604539,3.96152471 68.1894539,4.24752471 67.7054539,4.83052471 C67.1994539,5.40252471 66.9574539,6.10652471 66.9574539,6.95352471 C66.9574539,7.88852471 67.2214539,8.62552471 67.7494539,9.17552471 C68.2334539,9.69252471 68.9044539,9.95652471 69.7404539,9.95652471 Z M71.2804539,6.40352471 L68.2114539,6.40352471 C68.2774539,5.91952471 68.4424539,5.55652471 68.6844539,5.30352471 C68.9484539,5.03952471 69.2894539,4.91852471 69.7294539,4.91852471 C70.6534539,4.91852471 71.1704539,5.41352471 71.2804539,6.40352471 Z M75.8894539,9.80252471 L77.0774539,5.54552471 L78.2654539,9.80252471 L79.3434539,9.80252471 L81.2684539,4.11552471 L79.9814539,4.11552471 L78.7824539,8.41652471 L77.6164539,4.11552471 L76.5384539,4.11552471 L75.3724539,8.41652471 L74.1734539,4.11552471 L72.8864539,4.11552471 L74.8114539,9.80252471 L75.8894539,9.80252471 Z"></path>
                </g>
            </g>
        </g>
    </g>
</svg>